<svg width="40" height="48" viewBox="0 0 40 48" fill="none" xmlns="http://www.w3.org/2000/svg">
<path d="M33.75 7.5H6.25C5.58696 7.5 4.95107 7.81607 4.48223 8.37868C4.01339 8.94129 3.75 9.70435 3.75 10.5V37.5C3.75 38.2956 4.01339 39.0587 4.48223 39.6213C4.95107 40.1839 5.58696 40.5 6.25 40.5H33.75C34.413 40.5 35.0489 40.1839 35.5178 39.6213C35.9866 39.0587 36.25 38.2956 36.25 37.5V10.5C36.25 9.70435 35.9866 8.94129 35.5178 8.37868C35.0489 7.81607 34.413 7.5 33.75 7.5ZM32.1344 16.0613L17.1344 34.0613C17.0183 34.2007 16.8804 34.3114 16.7287 34.3868C16.5769 34.4623 16.4143 34.5012 16.25 34.5012C16.0857 34.5012 15.9231 34.4623 15.7713 34.3868C15.6196 34.3114 15.4817 34.2007 15.3656 34.0613L9.11562 26.5613C8.88107 26.2798 8.7493 25.898 8.7493 25.5C8.7493 25.102 8.88107 24.7202 9.11562 24.4387C9.35018 24.1573 9.66829 23.9992 10 23.9992C10.3317 23.9992 10.6498 24.1573 10.8844 24.4387L16.25 30.8794L30.3656 13.9387C30.6002 13.6573 30.9183 13.4992 31.25 13.4992C31.5817 13.4992 31.8998 13.6573 32.1344 13.9387C32.3689 14.2202 32.5007 14.602 32.5007 15C32.5007 15.398 32.3689 15.7798 32.1344 16.0613Z" fill="#102754"/>
</svg>
